<svg id="Layer_1" data-name="Layer 1" xmlns="http://www.w3.org/2000/svg" viewBox="0 0 140.89 103.53"><defs><style>.cls-1{fill:#fff;}.cls-2{fill:#b0beca;}</style></defs><title>liv_logolar</title><path class="cls-1" d="M133.81,109.33h5.93a6.54,6.54,0,0,1,6.55,6.54v23.32L182,102.7a6.54,6.54,0,0,1,9.26,0l5.08,5.17-50.08,50.25h-5.93a6.54,6.54,0,0,1-6.55-6.54V109.33Z" transform="translate(-56.04 -84.9)"/><path class="cls-1" d="M107.41,158.12h-6.09a6.54,6.54,0,0,1-6.55-6.54V109.33h6.11a6.54,6.54,0,0,1,6.55,6.54v42.25Z" transform="translate(-56.04 -84.9)"/><path class="cls-1" d="M68.71,138.56V91.82a6.54,6.54,0,0,0-6.54-6.55H56.05v66.3a6.54,6.54,0,0,0,6.55,6.54h6l.07-.07" transform="translate(-56.04 -84.9)"/><polygon class="cls-2" points="12.67 53.66 38.73 24.43 38.72 43.45 12.74 73.07 12.67 73.15 12.67 53.66"/><polygon class="cls-2" points="77.77 24.42 51.38 54.15 51.37 54.54 51.37 73.22 77.76 44.05 77.77 24.42"/><polygon class="cls-1" points="10.32 103.25 10.32 96.41 4.91 96.41 4.91 103.25 0 103.25 0 85.89 4.91 85.89 4.91 92.22 10.32 92.22 10.32 85.89 15.23 85.89 15.23 103.25 10.32 103.25"/><path class="cls-1" d="M92,179.45a11.38,11.38,0,0,1-.6,3.84,7.76,7.76,0,0,1-1.66,2.81,7.06,7.06,0,0,1-2.55,1.74,8.86,8.86,0,0,1-3.25.59,8.76,8.76,0,0,1-3.24-.58,6.9,6.9,0,0,1-2.53-1.72,8,8,0,0,1-1.65-2.8,12.73,12.73,0,0,1,0-7.66,8.12,8.12,0,0,1,1.67-2.82,7.06,7.06,0,0,1,2.54-1.74,9.32,9.32,0,0,1,6.5,0,6.82,6.82,0,0,1,2.53,1.72,7.73,7.73,0,0,1,1.66,2.79,11.92,11.92,0,0,1,.58,3.84m-5,.05a6.52,6.52,0,0,0-.81-3.57A2.57,2.57,0,0,0,84,174.71a2.51,2.51,0,0,0-2.24,1.2,8.3,8.3,0,0,0,0,7.11A2.57,2.57,0,0,0,84,184.24a2.53,2.53,0,0,0,2.25-1.2A6.59,6.59,0,0,0,87,179.5" transform="translate(-56.04 -84.9)"/><path class="cls-1" d="M110.49,182.83a5.74,5.74,0,0,1-.53,2.55,4.59,4.59,0,0,1-1.5,1.74,6.66,6.66,0,0,1-2.26,1,12.39,12.39,0,0,1-2.88.32A13.59,13.59,0,0,1,96,186.32l2.32-3.76a9.36,9.36,0,0,0,1.11.62,14.18,14.18,0,0,0,1.32.57,12.64,12.64,0,0,0,1.37.39,6.17,6.17,0,0,0,1.29.15,4.36,4.36,0,0,0,1.77-.25.88.88,0,0,0,.48-.86.77.77,0,0,0-.13-.45,1.31,1.31,0,0,0-.46-.39,5.8,5.8,0,0,0-.92-.37c-.37-.12-.85-.25-1.43-.39a26.23,26.23,0,0,1-2.74-.78,6.49,6.49,0,0,1-1.92-1.06,4,4,0,0,1-1.16-1.54,5.53,5.53,0,0,1-.39-2.19,5.15,5.15,0,0,1,.48-2.25A5,5,0,0,1,98.39,172a6.18,6.18,0,0,1,2.15-1.12,9.58,9.58,0,0,1,2.83-.4,12.82,12.82,0,0,1,3.88.53,10.49,10.49,0,0,1,3,1.49L108,176.3a10.6,10.6,0,0,0-2.33-1.21,7.35,7.35,0,0,0-2.51-.42,2.29,2.29,0,0,0-1.44.3.94.94,0,0,0-.34.76.86.86,0,0,0,.59.76,11.9,11.9,0,0,0,2.26.7,22.83,22.83,0,0,1,2.82.87,7.6,7.6,0,0,1,2,1.11,4,4,0,0,1,1.14,1.55,5.57,5.57,0,0,1,.37,2.11" transform="translate(-56.04 -84.9)"/><path class="cls-1" d="M130.07,176.55a6.67,6.67,0,0,1-.52,2.8,4.66,4.66,0,0,1-1.47,1.85,6.14,6.14,0,0,1-2.24,1,12.42,12.42,0,0,1-2.88.3h-2.41v5.64h-4.72V170.79h7.47a12.44,12.44,0,0,1,2.78.31,5.86,5.86,0,0,1,2.12,1,4.12,4.12,0,0,1,1.38,1.79,6.45,6.45,0,0,1,.49,2.66m-4.79.07a1.93,1.93,0,0,0-.47-1.38,2.15,2.15,0,0,0-1.65-.53h-2.61v3.91h2.55a2.41,2.41,0,0,0,1.7-.51,2.08,2.08,0,0,0,.48-1.49" transform="translate(-56.04 -84.9)"/><rect class="cls-1" x="78.83" y="85.89" width="4.91" height="17.37"/><polygon class="cls-1" points="98.21 90.09 98.21 103.25 93.39 103.25 93.39 90.09 88.53 90.09 88.53 85.89 103.07 85.89 103.07 90.09 98.21 90.09"/><path class="cls-1" d="M174.31,188.16l-.95-3.06h-5.2l-.95,3.06h-5.16l6.31-17.37h4.85l6.31,17.37Zm-2.43-8c-.15-.56-.28-1.06-.4-1.47s-.22-.79-.31-1.1-.17-.65-.23-.92-.13-.56-.18-.85c0,.29-.11.58-.18.86s-.13.59-.23.93-.2.69-.31,1.11-.25.89-.39,1.44l-.33,1.13h2.88Z" transform="translate(-56.04 -84.9)"/><polygon class="cls-1" points="128.34 103.25 128.34 85.89 133.2 85.89 133.2 99.06 140.89 99.06 140.89 103.25 128.34 103.25"/><path class="cls-1" d="M109.27,93.06a8.16,8.16,0,1,1-8.16-8.16,8.16,8.16,0,0,1,8.16,8.16" transform="translate(-56.04 -84.9)"/></svg>